<svg id="Layer_1" data-name="Layer 1" xmlns="http://www.w3.org/2000/svg" viewBox="0 0 990.63 1151.42"><defs><style>.cls-1{fill:#e8e8e8;opacity:0.35;}.cls-2{fill:#efefef;}</style></defs><title>web bg images</title><path class="cls-1" d="M990.63,0V1151.42L922.26,999.76C891.54,931.63,872.07,841.21,866,738.27c-5.92-99.5.79-205.82,19.41-307.47,5.38-29.4,2.61-50.9-8.24-63.91-17.14-20.57-61.47-33.35-115.67-33.35-12.72,0-21.32.76-22.49.87l-3.63.41h-3.24c-5.5.07-11.09.1-16.6.1h-.08c-112.1,0-217.5-14.74-313.29-43.83C324.29,267.45,252.6,234.35,189,192.7,79.66,121.05,31.25,48.59,26.08,40.57L0,0Z"/><path class="cls-2" d="M990.63,0V968.93c-55.15-122.33-67.18-329.76-31.5-524.63,39-213-228-184.49-228-184.49-471,6-642-259.81-642-259.81Z"/></svg>