<svg id="Layer_1" data-name="Layer 1" xmlns="http://www.w3.org/2000/svg" viewBox="0 0 1080 1920"><defs><style>.cls-1{fill:#fff;}.cls-2{fill:#efaa0f;}.cls-3{fill:#e58910;}.cls-4{fill:#f2940c;}.cls-5{fill:#f9f9f9;}.cls-6{fill:#efefef;}</style></defs><title>set 1</title><rect class="cls-1" width="1080" height="1920"/><path class="cls-2" d="M-.89,1735v185h1080V1721.83c-114.92-42-327.69-87-540,39.17C323.93,1888.87,111.11,1801.85-.89,1735Z"/><path class="cls-3" d="M1079.11,1735v185H-.89V1721.83c59.82-21.86,146.14-44.54,245.12-43.46,91.18,1,193.08,22.13,294.88,82.63q15.67,9.32,31.31,17.13C774.72,1880.47,972.55,1798.6,1079.11,1735Z"/><path class="cls-4" d="M1079.11,1782.9V1920H-.89V1730.4c60.38-25,146.35-50.94,245.12-52,99.67-1.11,212.37,23.06,324.95,98.93l1.24.83C763,1907.13,953.72,1851.55,1079.11,1782.9Z"/><path class="cls-2" d="M252.46,1678.34h-.88q-3.69,0-7.35.06c-98.77,1.93-184.74,47.92-245.12,92.32V1730.4c60.38-25,146.35-50.94,245.12-52q3.66,0,7.35,0Z"/><path class="cls-3" d="M1079.11,1863.87V1920h-65.89A631.38,631.38,0,0,0,1079.11,1863.87Z"/><path class="cls-5" d="M1079,58.92c-2.26,36.49-2.94,70.64,0,101.72V1185.88c-34-55.94-65.39-120.83-85.44-191.63-23.48-67.48-38-139.21-35.94-211.54,4.54-159,39-303.44-4-395.77a30.83,30.83,0,0,0-11.06-12.75,192.59,192.59,0,0,0-31.48-16.48C823.46,321.17,691.41,330,551.35,314q-13.71-1.57-27.27-3.92C462,299.33,402.46,277,347.06,248.3c-89-39.58-164.88-97.45-223.66-152.23L40.14,0H1079Z"/><path class="cls-6" d="M1079,0V963.37q-7.2-20.31-13.19-41.36c-23.48-67.49-38-139.22-35.94-211.54,4.53-159,39-303.45-4-395.78a30.9,30.9,0,0,0-11.06-12.75,193.78,193.78,0,0,0-31.48-16.48c-87.59-36.54-219.64-27.71-359.7-43.76q-13.71-1.57-27.27-3.92c-62.06-10.7-121.62-33.06-177-61.73-89-39.58-164.88-97.44-223.67-152.23L175,0Z"/></svg>