<svg id="Layer_1" data-name="Layer 1" xmlns="http://www.w3.org/2000/svg" viewBox="0 0 512 512"><defs><style>.cls-1{fill:#efefef;}.cls-2{fill:#313a64;}</style></defs><title>set 1</title><circle class="cls-1" cx="256" cy="256" r="255.57"/><path class="cls-2" d="M140.36,391.61c-.1-1.55-.2-3.15-.2-4.69v-4.36c0-52,0-105.75,0-158.62,0-14.84,6.91-21.76,21.72-21.8,7.81,0,15.62,0,23.52,0h40V189.75c0-6.88,0-13.61,0-20.34,0-3.08,0-6.17,0-9.25,0-6.4-.06-13,0-19.52.16-12.43,7.46-19.91,19.54-20,19.53-.16,39-.24,57.88-.24,16.5,0,33,.06,49.08.18,12.83.1,19.9,7,19.92,19.38.1,68.05.09,137.25.09,204.17v46.05a13.52,13.52,0,0,1-.08,1.37H360.85v-55.2l0-190.14c0-5.72-.12-9.35-2.45-11.76s-5.9-2.59-11.52-2.59H344l-24.52,0-24.5,0c-18.11,0-32-.06-45.14-.2h-.4c-4.8,0-7.9,1-10,3.17-2.76,2.84-3,7-2.92,10.38.35,12.32.28,24.55.21,37.5,0,5.31-.06,10.8-.06,16.36v3h15.32l16.23,0h16.22c12.11,0,21.42,0,30.17.1,11.41.09,19.11,7.58,19.14,18.63.14,42.3.12,85.51.1,127.3q0,21.67,0,43.51Zm106.32-11.83h74.67l.33-2.63c.07-.61.16-1.16.23-1.66a20.56,20.56,0,0,0,.33-3.22q0-22,0-44c0-34.12,0-69.41.1-104.12,0-3.52-.82-6.07-2.55-7.81-2.42-2.42-6-2.63-9.1-2.63h-.14c-21.61,0-46.11.11-70.27.11-29,0-53.16-.08-76.16-.25h-.24c-4.57,0-7.68,1-9.77,3.09-2.74,2.75-3.1,6.91-3.08,10.62.15,33.86.14,68.3.12,101.6q0,20.37,0,40.73c0,1.53.11,3,.23,4.67,0,.81.11,1.67.17,2.6l.16,2.83h74.75V334.39h20.23Z"/><rect class="cls-2" x="264.92" y="158.55" width="19.24" height="19.21"/><rect class="cls-2" x="312.32" y="158.73" width="19.64" height="18.95"/><rect class="cls-2" x="178.89" y="241.05" width="19.18" height="19.12"/><rect class="cls-2" x="226.64" y="240.97" width="19.43" height="19.17"/><rect class="cls-2" x="274.41" y="240.88" width="19.17" height="19.43"/><rect class="cls-2" x="179.15" y="288.24" width="19.14" height="19.19"/><rect class="cls-2" x="226.81" y="288" width="19.09" height="19.39"/><rect class="cls-2" x="274.33" y="287.96" width="19.19" height="19.32"/><rect class="cls-2" x="178.94" y="334.42" width="19.27" height="19.48"/><rect class="cls-2" x="274.25" y="334.59" width="19.34" height="19.44"/></svg>