<svg id="Layer_1" data-name="Layer 1" xmlns="http://www.w3.org/2000/svg" viewBox="0 0 32 32"><defs><style>.cls-1{fill:#313a64;fill-rule:evenodd;}</style></defs><title>set 1</title><path class="cls-1" d="M2.77,16.73,1.46,18,0,16.56,4,12.64l3.92,3.93L6.51,18,5.19,16.8c-.16,3.79,2.88,9.23,8.5,11A12.38,12.38,0,0,0,25.16,6.32,12.6,12.6,0,0,0,7.8,8L6.46,6.51c3-4,9.73-6.52,16-4.18a14.59,14.59,0,0,1,9.31,16.18,14.74,14.74,0,0,1-13.71,12A14.89,14.89,0,0,1,2.77,16.73Z"/><path class="cls-1" d="M10.48,13.9a9.54,9.54,0,0,1,1.2,0c.77.1,1-.25.91-.94a5.08,5.08,0,0,1,1.46-4.38,4.6,4.6,0,0,1,5.11-1,4.61,4.61,0,0,1,3.07,4.3c0,.64,0,1.27,0,2h2.14v9.79H10.48Zm11.73,2.28H12.7v5.29h9.51ZM20,13.85c.07-1.6.33-3.17-1.29-4.1a2.47,2.47,0,0,0-2.85.15c-1.42,1-1.1,2.49-1,3.95Z"/></svg>