<svg id="Layer_1" data-name="Layer 1" xmlns="http://www.w3.org/2000/svg" viewBox="0 0 512 512"><defs><style>.cls-1{fill:#efefef;}.cls-2{fill:#313a64;}</style></defs><title>set 1</title><rect class="cls-1" width="512" height="512"/><path class="cls-2" d="M364.27,183.82H312.14v-16a20.07,20.07,0,0,0-20.05-20.05H219.91a20.07,20.07,0,0,0-20,20.05v16H147.73a12,12,0,0,0-12,12v89.26a12.08,12.08,0,0,0,8,11.32v55.81a12,12,0,0,0,12,12h200.5a12,12,0,0,0,12-12v-55.8a12.11,12.11,0,0,0,8-11.33V195.85A12,12,0,0,0,364.27,183.82Zm-156.39-16a12,12,0,0,1,12-12h72.18a12,12,0,0,1,12,12v16h-8v-16a4,4,0,0,0-4-4H219.91a4,4,0,0,0-4,4v16h-8Zm80.2,16H223.92v-12h64.16Zm72.18,168.42a4,4,0,0,1-4,4H155.75a4,4,0,0,1-4-4V297.81L240,310v10.18a12,12,0,0,0,12,12h8a12,12,0,0,0,12-12V310l88.22-12.17ZM264,320.16a4,4,0,0,1-4,4h-8a4,4,0,0,1-4-4V296.1a4,4,0,0,1,4-4h8a4,4,0,0,1,4,4Zm104.26-35.05a4,4,0,0,1-3.45,4l-1.11.15L272,301.88V296.1a12,12,0,0,0-12-12h-8a12,12,0,0,0-12,12v5.78l-92.79-12.79a4,4,0,0,1-3.45-4V195.85a4,4,0,0,1,4-4H364.27a4,4,0,0,1,4,4Z"/></svg>