<svg id="Layer_1" data-name="Layer 1" xmlns="http://www.w3.org/2000/svg" viewBox="0 0 512 512"><defs><style>.cls-1{fill:#fff;}</style></defs><title>set 1</title><rect class="cls-1" x="58.51" y="294.52" width="19.92" height="200.88" rx="9.96" ry="9.96"/><path class="cls-1" d="M283.89,221.5l-2.36,11.88c-9.26,47.1-70.63,64.49-93.57,69.4V485.44a10,10,0,0,1-10,10h0a10,10,0,0,1-10-10V286l8.5-1.27c.7-.13,62.67-9.82,81.09-43.28H74.54c-5.74,1.4-36.78,10-36.78,36.51v95.8c0,.13-.36,17.12,9.43,27.18a24,24,0,0,0,11.32,6.51,37,37,0,0,0,10,1.22v19.92a64.71,64.71,0,0,1-10-.76,44.9,44.9,0,0,1-25.76-13.15c-15-15.56-15-38.67-14.9-41.42v-95.3c0-36,35.08-52.51,53.64-56.22l1-.2Z"/><rect class="cls-1" x="113.28" y="382.48" width="19.92" height="112.92" rx="9.96" ry="9.96"/><path class="cls-1" d="M130.7,88.73c-30.2,0-54.76,26.09-54.76,58.12S100.5,205,130.7,205s54.77-26.09,54.77-58.12S160.91,88.73,130.7,88.73Zm0,96.32c-19.22,0-34.85-17.16-34.85-38.2s15.63-38.21,34.85-38.21,34.86,17.16,34.86,38.21S149.92,185.05,130.7,185.05Z"/><path class="cls-1" d="M305,334.42v84.64h90.45V334.42Zm19.92,64.72V354.33H375.5v44.81Z"/><path class="cls-1" d="M234.43,334.42v84.64h90.45V334.42ZM305,399.14H254.34V354.33H305Z"/><path class="cls-1" d="M269.71,269.69v84.64h90.42V269.69Zm19.92,64.73V289.61h50.58v44.81Z"/><rect class="cls-1" x="209.53" y="399.13" width="274.67" height="19.92" rx="9.96" ry="9.96"/><path class="cls-1" d="M469.26,409.1v87.13H289.63a10,10,0,0,1-10-10h0a10,10,0,0,1,10-10H449.35V409.1Z"/><path class="cls-1" d="M494.16,94.2v3.72H192.94a10,10,0,0,1-10-10h0a10,10,0,0,1,10-9.95H447L432.42,64.73l-31.76-29H168.87L137.16,59.28a10,10,0,0,1-13.93-2h0a10,10,0,0,1,2-13.92l37-27.55H408.42l53.51,49Z"/><path class="cls-1" d="M461.93,64.73H432.42L447,78H379.65v63.06a57.24,57.24,0,0,0,47.29,56.36,55.56,55.56,0,0,0,19.92,0,57.3,57.3,0,0,0,47.3-56.36V94.2Zm12.31,76.34a37.34,37.34,0,0,1-74.68,0V84.64h74.68Z"/><path class="cls-1" d="M294.18,78v69.7a50.62,50.62,0,0,0,101.23,0V78Zm81.32,69.7a30.71,30.71,0,0,1-61.41,0V84.64H375.5Z"/><path class="cls-1" d="M212.85,78v69.7a50.62,50.62,0,0,0,101.24,0V78Zm81.33,69.7a30.71,30.71,0,0,1-61.41,0V84.64h61.41Z"/><path class="cls-1" d="M436.9,382.49h0a10,10,0,0,1-10-10V188.09h19.92V372.53A10,10,0,0,1,436.9,382.49Z"/><rect class="cls-1" x="279.67" y="495.4" width="189.59" height="0.83"/></svg>