<svg id="Layer_1" data-name="Layer 1" xmlns="http://www.w3.org/2000/svg" viewBox="0 0 512 512"><defs><style>.cls-1{fill:#efefef;}.cls-2{fill:#313a64;}</style></defs><title>set 1</title><circle class="cls-1" cx="256" cy="256" r="255.57"/><path class="cls-2" d="M236.62,399.31V387.73H391.71c-.1-23.39-4.31-45-18.46-63.21-7.05-9-16.54-16.18-24.87-24.25-3.13-3-5.53-2.3-8.78.31-24.87,19.95-52.27,24.4-81.77,11.92-6.84-2.9-13.2-7.31-19.12-11.88-3.71-2.88-6.26-2.8-9.59-.15-4.37,3.49-8.87,6.83-13.18,10.13l-9.43-8.49c9.63-6.55,18.5-12.82,27.72-18.54,1.15-.71,4.69,1,6.2,2.52,9.83,9.85,21.07,17.16,34.89,19.83,23.61,4.56,44.08-1.76,60.84-18.94,4.16-4.26,7-4.31,11.92-1.37,40.31,24.29,56.8,60.86,55.63,106.68a51.47,51.47,0,0,1-1.11,7Z"/><path class="cls-2" d="M212,399.31c-15.61-4.95-31.23-9.82-44.09-20.7s-22.27-24-26.13-40.57c-1.1-4.74-3.39-6.38-8-6-2.78.26-5.63-.23-8.41,0-3.91.31-6.39-.78-7.9-4.8-1.36-3.64-1.49-6.26,1.55-9.16,15.12-14.45,30.08-29.07,45.28-43.8,15.91,15.2,31.29,29.73,46.37,44.58,1.36,1.34,1.4,4.87.84,7.07-.7,2.84-1.26,6.41-6,6-5.27-.43-10.6-.1-16.29-.1,1.49,20,7.26,36.62,21.43,49.65,8.32,7.65,8.28,7.7,4,17.78Zm-64-79.05c5.06,12.2,8.78,24.19,14.8,34.87,6.11,10.86,16,18.49,28.93,24-11.69-20.85-17-44-13.83-59.37h12.65l-26-28.92-30.15,28.8Z"/><path class="cls-2" d="M108.24,286.49c2.58-7.68,4.72-15.56,7.84-23,8.56-20.48,23.24-35.39,43.37-46,13.93,16.4,31.56,23.39,53.37,19.27l2.11,11.43c-22.29,4.3-41.22-1-58-15.46-21.26,14.34-32.51,34.62-37,60l-11.67-2.3Z"/><path class="cls-2" d="M288.94,292.19a70.34,70.34,0,0,1-70.67-70c-.14-39.58,30.95-71.75,69.52-71.93,39.8-.19,71.94,31.06,72.12,70.09C360.09,260.55,329,292,288.94,292.19Zm.38-12.15c32.07,0,58.58-26.33,58.66-58.31a59.22,59.22,0,0,0-59.66-59.53c-31.77.07-58.18,26.81-58.19,58.91C230.12,254.13,256.11,280,289.32,280Z"/><path class="cls-2" d="M206.17,227.14c-32.64,1.13-57-22.07-60.22-50.23-3.2-28.41,14.87-55.34,42.13-62.51,25.53-6.71,55.35,6.86,65.45,30.09-1.56.94-3.18,1.9-4.78,2.89-3.54,2.2-5.76,1.58-8.34-2.11-10.34-14.75-24.37-21.79-42.76-19.89-30.74,3.18-49.43,36.29-35.68,64,7.33,14.78,19.49,23.3,35.84,25.55C207.38,216.25,207.6,216.35,206.17,227.14Z"/></svg>