<svg id="Layer_1" data-name="Layer 1" xmlns="http://www.w3.org/2000/svg" viewBox="0 0 32 32"><defs><style>.cls-1{fill:#efefef;}.cls-2{fill:#313a64;}</style></defs><title>set 1</title><circle class="cls-1" cx="16" cy="16" r="16"/><path class="cls-2" d="M18.46,13.44a5.46,5.46,0,0,0-1.18-.53,5.3,5.3,0,0,0-1.6-.25,5.24,5.24,0,0,0-1.59.25,5.46,5.46,0,0,0-1.18.53,5.34,5.34,0,1,0,5.55,0Zm-2.78,8.89A4.33,4.33,0,0,1,14.09,14a4.2,4.2,0,0,1,1.59-.3,4.33,4.33,0,1,1,0,8.65Z"/><path class="cls-2" d="M20.92,9.93a5.16,5.16,0,0,0,.1-1,5.34,5.34,0,1,0-10.67,0,5.16,5.16,0,0,0,.1,1,9.63,9.63,0,1,0,10.47,0Zm-9.56-1a4.33,4.33,0,1,1,8.65,0,4.19,4.19,0,0,1,0,.5,9.55,9.55,0,0,0-8.59,0A4.19,4.19,0,0,1,11.36,8.89Zm4.32,17.73a8.61,8.61,0,0,1-4.92-15.68,7.86,7.86,0,0,1,.87-.54,8.65,8.65,0,0,1,8.11,0,7.86,7.86,0,0,1,.87.54,8.61,8.61,0,0,1-4.93,15.68Z"/></svg>