<svg id="Layer_1" data-name="Layer 1" xmlns="http://www.w3.org/2000/svg" viewBox="0 0 512 512"><defs><style>.cls-1{fill:#fff;}</style></defs><title>set 1</title><path class="cls-1" d="M214.93,16.19V124a10,10,0,0,0,10,9.95h0a9.94,9.94,0,0,0,10-9.95V36.1H492.08V339.81H234.84V284.15a10,10,0,0,0-10-10h0a10,10,0,0,0-10,10v75.58H512V16.19Z"/><path class="cls-1" d="M277.16,109.12V293.34h172.6V109.12ZM429.85,273.43H297.08V129H429.85Z"/><path class="cls-1" d="M400,154.75h0a10,10,0,0,1-10-10V88.37a16.6,16.6,0,0,0-16.6-16.6H350.19a16.6,16.6,0,0,0-16.6,16.6v56.42a10,10,0,0,1-10,10h0a10,10,0,0,1-9.95-10V88.37a36.51,36.51,0,0,1,36.51-36.52h23.23a36.51,36.51,0,0,1,36.51,36.52v56.42A10,10,0,0,1,400,154.75Z"/><rect class="cls-1" x="40.67" y="251.02" width="19.92" height="244.79" rx="9.96" ry="9.96"/><path class="cls-1" d="M266,178l-2.35,11.88c-9.26,47.07-70.63,64.49-93.57,69.37V485.86a10,10,0,0,1-10,9.95h0a10,10,0,0,1-10-9.95V242.42l8.5-1.26c.7-.1,62.67-9.82,81.09-43.25H56.7c-5.74,1.36-36.78,10-36.78,36.51v95.8c0,.13-.36,17.09,9.43,27.15a24,24,0,0,0,11.32,6.51,37.43,37.43,0,0,0,10,1.22V385a63.46,63.46,0,0,1-10-.77,45,45,0,0,1-25.76-13.11c-15-15.6-15-38.7-14.9-41.42v-95.3c0-36,35.08-52.54,53.64-56.26l1-.16Z"/><rect class="cls-1" x="95.44" y="338.98" width="19.92" height="156.83" rx="9.96" ry="9.96"/><path class="cls-1" d="M112.86,161.43c-30.19,0-54.77-26.07-54.77-58.11s24.58-58.1,54.77-58.1,54.77,26.06,54.77,58.1S143.06,161.43,112.86,161.43Zm0-96.3C93.64,65.13,78,82.26,78,103.32s15.63,38.2,34.85,38.2,34.85-17.14,34.85-38.2S132.08,65.13,112.86,65.13Z"/></svg>