<svg id="Layer_1" data-name="Layer 1" xmlns="http://www.w3.org/2000/svg" viewBox="0 0 512 512"><defs><style>.cls-1{fill:#efefef;}.cls-2{fill:#313a64;}</style></defs><title>set 1</title><circle class="cls-1" cx="255.57" cy="255.96" r="255.57"/><path class="cls-2" d="M365.08,154.76h-219a23.39,23.39,0,0,0-23.35,23.35v155.7a23.39,23.39,0,0,0,23.35,23.36h219a23.4,23.4,0,0,0,23.36-23.36V178.11A23.39,23.39,0,0,0,365.08,154.76Zm-3.22,15.57L256.07,276.12,149.36,170.33ZM138.28,330.59V181.26l75,74.34Zm11,11,75-75,26.29,26.07a7.79,7.79,0,0,0,11,0L287.23,267l74.63,74.63Zm223.58-11L298.24,256l74.63-74.62Z"/></svg>