<svg id="Layer_1" data-name="Layer 1" xmlns="http://www.w3.org/2000/svg" viewBox="0 0 32 32"><defs><style>.cls-1{fill:#efefef;}.cls-2{fill:#313a64;}</style></defs><title>set 1</title><circle class="cls-1" cx="16" cy="16" r="16"/><path class="cls-2" d="M19.19,5.64a7,7,0,0,0-6.54,9.49L6,21.82a.54.54,0,0,0-.14.36v3.67a.51.51,0,0,0,.51.51h3a.51.51,0,0,0,.36-.15l1-1a.48.48,0,0,0,.15-.36V23.58h1.25a.51.51,0,0,0,.51-.51v-.5h.5a.51.51,0,0,0,.51-.51V21h1.1a.51.51,0,0,0,.36-.15l1.62-1.62A7,7,0,1,0,19.19,5.64Zm0,13a5.84,5.84,0,0,1-2.4-.5.51.51,0,0,0-.56.11h0l-1.71,1.71h-1.4a.51.51,0,0,0-.51.51v1.1h-.5a.51.51,0,0,0-.51.51v.5H10.35a.51.51,0,0,0-.51.51v1.55l-.72.72H6.83v-.73l6.23-6.23a.46.46,0,0,0-.65-.65L6.83,23.32v-.93l6.78-6.78h0a.54.54,0,0,0,.11-.57,5.78,5.78,0,0,1-.51-2.4,6,6,0,1,1,6,6Z"/><path class="cls-2" d="M21.32,8.6a1.91,1.91,0,1,0,1.92,1.91A1.92,1.92,0,0,0,21.32,8.6Zm0,2.8a.89.89,0,1,1,.9-.89A.89.89,0,0,1,21.32,11.4Z"/></svg>