<svg id="Layer_1" data-name="Layer 1" xmlns="http://www.w3.org/2000/svg" viewBox="0 0 512 512"><defs><style>.cls-1{fill:#efefef;}.cls-2{fill:#313a64;}</style></defs><title>set 1</title><rect class="cls-1" y="-0.24" width="512" height="512"/><path class="cls-2" d="M396.5,326.51A19.16,19.16,0,0,0,387,312.29L329.2,279a19.36,19.36,0,0,0-23.32,3.09L294.5,293.49A7.1,7.1,0,0,1,285,294a328.93,328.93,0,0,1-26.16-23.52,327,327,0,0,1-23.52-26.16,7.11,7.11,0,0,1,.53-9.5l11.38-11.38a19.36,19.36,0,0,0,3.09-23.31l-33.27-57.78a19.18,19.18,0,0,0-14.22-9.52,18.78,18.78,0,0,0-2.59-.17,19.17,19.17,0,0,0-13.62,5.66l-17.15,17.15c-12.34,12.35-12.63,34.72-.8,63,11.23,26.86,32.17,56.41,59,83.21s56.35,47.74,83.21,59c13.76,5.76,26.13,8.67,36.74,8.67,11.13,0,20-3.19,26.26-9.48L391,342.72A19.19,19.19,0,0,0,396.5,326.51Zm-72.31-38.77L382,321a9.3,9.3,0,0,1,3.44,12.64L311,291.19l2-2a9.27,9.27,0,0,1,11.19-1.48Zm42.56,65c-4.31,4.31-10.77,6.5-19.2,6.5-9.18,0-20.52-2.72-32.81-7.86-25.68-10.73-54.08-30.91-80-56.8s-46.07-54.3-56.81-80c-10-23.91-10.49-42.87-1.35-52L188.19,151,231,225.44l-2.29,2.29a17.17,17.17,0,0,0-1.26,22.92,343.09,343.09,0,0,0,51.21,51.21,17.25,17.25,0,0,0,10.75,3.79,17.06,17.06,0,0,0,12.16-5l2-2,74.67,42.62ZM240.13,216.35l-1.73,1.73L195.73,144a9,9,0,0,1,4.55-1.21,8.61,8.61,0,0,1,1.24.08,9.17,9.17,0,0,1,6.82,4.57l33.27,57.77A9.29,9.29,0,0,1,240.13,216.35Z"/></svg>