<svg id="Layer_1" data-name="Layer 1" xmlns="http://www.w3.org/2000/svg" viewBox="0 0 512 512"><defs><style>.cls-1{fill:#efefef;}.cls-2{fill:#313a64;}</style></defs><title>set 1</title><circle class="cls-1" cx="255.57" cy="256" r="255.57"/><path class="cls-2" d="M399.63,348.05A23.4,23.4,0,0,0,388,330.71l-70.44-40.56a23.63,23.63,0,0,0-28.43,3.76l-13.87,13.88a8.67,8.67,0,0,1-11.58.65,399.5,399.5,0,0,1-31.89-28.68,403,403,0,0,1-28.68-31.89,8.67,8.67,0,0,1,.65-11.58l13.88-13.87A23.62,23.62,0,0,0,221.42,194l-40.56-70.44a23.4,23.4,0,0,0-17.34-11.61,23.7,23.7,0,0,0-3.15-.21,23.39,23.39,0,0,0-16.61,6.91l-20.9,20.91c-15,15-15.4,42.33-1,76.8,13.7,32.75,39.23,68.77,71.9,101.45s68.7,58.2,101.45,71.9c16.78,7,31.85,10.57,44.79,10.57,13.57,0,24.34-3.89,32-11.56l20.91-20.91A23.41,23.41,0,0,0,399.63,348.05Zm-88.17-47.27,70.44,40.55a11.33,11.33,0,0,1,4.19,15.41L295.41,305l2.41-2.41a11.31,11.31,0,0,1,13.64-1.8ZM363.35,380C358.1,385.29,350.22,388,340,388c-11.19,0-25-3.31-40-9.58-31.31-13.09-65.94-37.68-97.51-69.25s-56.16-66.2-69.26-97.51c-12.19-29.15-12.79-52.26-1.65-63.4l14.13-14.14,52.24,90.75-2.79,2.79a20.91,20.91,0,0,0-1.53,27.93,412.94,412.94,0,0,0,29.56,32.88A414.57,414.57,0,0,0,256,318,20.93,20.93,0,0,0,284,316.46l2.48-2.48,91,51.95ZM209,213.75l-2.11,2.1-52-90.37a10.94,10.94,0,0,1,7.06-1.38,11.2,11.2,0,0,1,8.32,5.57l40.56,70.44A11.32,11.32,0,0,1,209,213.75Z"/></svg>