<svg id="Layer_1" data-name="Layer 1" xmlns="http://www.w3.org/2000/svg" viewBox="0 0 512 512"><defs><style>.cls-1{fill:#efefef;}.cls-2{fill:#313a64;}</style></defs><title>set 1</title><circle class="cls-1" cx="256" cy="256" r="255.57"/><path class="cls-2" d="M256,285.07a80.36,80.36,0,1,1,80.35-80.36A80.46,80.46,0,0,1,256,285.07Zm0-145.48a65.11,65.11,0,1,0,65.11,65.12A65.19,65.19,0,0,0,256,139.59Z"/><path class="cls-2" d="M256,267.12c-71.58,0-131.24,52.19-142.86,120.53h15.49c11.44-59.87,64.2-105.28,127.37-105.28A129.86,129.86,0,0,1,383.37,387.65h15.49C387.24,319.31,327.59,267.12,256,267.12Z"/></svg>