<svg id="Layer_1" data-name="Layer 1" xmlns="http://www.w3.org/2000/svg" viewBox="0 0 512 512"><defs><style>.cls-1{fill:#efefef;}.cls-2{fill:#313a64;}</style></defs><title>set 1</title><rect class="cls-1" width="512" height="512"/><path class="cls-2" d="M363.49,168.23H183.84a19.19,19.19,0,0,0-19.15,19.16V315.1a19.19,19.19,0,0,0,19.15,19.16H363.49a19.19,19.19,0,0,0,19.16-19.16V187.39A19.19,19.19,0,0,0,363.49,168.23ZM360.85,181l-86.78,86.78L186.55,181ZM177.46,312.46V190L239,251Zm9,9L248,259.94l21.57,21.38a6.38,6.38,0,0,0,9,0l21-21,61.22,61.21Zm183.39-9-61.21-61.21L369.88,190Z"/></svg>